<svg width="189.1" height="189.1" version="1.1" viewBox="0 0 189.1 189.1" xmlns="http://www.w3.org/2000/svg">
 <path d="m93.5 183.8c-1.195-2.242-4.475-6.145-6.821-8.117-5.174-4.349-11.58-7.177-22.68-10.01-13.9-3.549-18.24-5.609-25.61-12.14-1.963-1.741-5.316-6.237-6.673-8.947-1.595-3.187-2.473-5.827-3.083-9.277-0.5832-3.297-0.5842-5.401-0.0041-8.94 1.027-6.267 1.345-7.04 9.317-22.64 3.407-6.667 4.457-9.625 5.127-14.45 0.4184-3.009 0.4389-4.136 0.124-6.819-1.189-10.13-4.627-16.15-12.37-21.64l-1.329-0.9434 5.027-9.195c7.115-13.01 7.151-13.08 8.68-15.92 0.759-1.408 1.427-2.62 1.485-2.693 0.05798-0.07336 1.005 0.3448 2.105 0.9293 4.47 2.375 7.535 3.85 10.88 5.233 0.834 0.3453 1.141 0.6411 1.012 0.9761-0.1014 0.2643 0.05255 1.296 0.3422 2.292 0.2896 0.9963 0.4556 1.883 0.3688 1.969-0.317 0.317-4.361-1.255-9.541-3.709-1.529-0.7245-2.918-1.317-3.087-1.317-0.3484 0-1.691 2.069-3.323 5.12-0.6118 1.144-1.474 2.728-1.917 3.52-1.913 3.423-2.836 5.157-4.418 8.293l-1.681 3.333 0.9004 0.6559c4.589 3.343 8.933 10.61 10.35 17.32 0.1858 0.88 0.486 2.276 0.667 3.102 0.4766 2.175 0.3931 8.643-0.1499 11.62-1.097 6.009-2.345 9.011-8.318 20-2.832 5.21-3.753 7.299-5.235 11.87-0.205 0.6322-0.5247 2.216-0.7106 3.52-1.23 8.629 1.317 16.02 7.729 22.44 4.845 4.845 12.18 8.75 20.61 10.98 1.584 0.4185 4.032 1.066 5.44 1.44 12.55 3.33 20.37 7.39 25.82 13.41 0.9696 1.071 1.954 1.948 2.188 1.948 0.2338 0 1.588-1.195 3.009-2.655 2.31-2.373 5.978-5.109 9.144-6.82 0.616-0.3329 1.168-0.7132 1.227-0.8452 0.0587-0.132 0.2908-0.24 0.5157-0.24s1.329-0.416 2.453-0.9245c2.64-1.194 6.847-2.595 11.65-3.881 7.287-1.95 7.687-2.066 10.71-3.104 11.98-4.114 20.38-12.18 22.91-22.01 0.7643-2.97 0.7829-8.804 0.0372-11.68-0.8275-3.192-2.478-7.149-4.88-11.7-6.845-12.97-7.849-15.28-8.957-20.63-0.7349-3.544-0.7308-10.29 9e-3 -14.2 1.426-7.522 4.854-13.89 9.823-18.24l1.7-1.488-1.509-2.954c-1.468-2.874-3.522-6.726-5.671-10.63-0.5807-1.056-1.628-2.964-2.327-4.24s-1.472-2.32-1.717-2.32-1.78 0.6357-3.411 1.413c-7.693 3.664-13.33 5.32-20.41 5.99-4.159 0.3938-4.212 0.3939-8.32 0.02175-5.053-0.4578-9.411-1.533-13.23-3.265-1.163-0.5274-2.381-0.9589-2.706-0.9589s-1.739 0.4977-3.143 1.106c-5.863 2.541-12.7 3.542-20.76 3.04-5.237-0.3268-5.388-0.3815-5.167-1.871 0.4777-3.222 0.5242-3.312 1.608-3.097 8.081 1.602 19.47 0.01235 25.16-3.51 2.002-1.24 2.319-1.231 4.951 0.1476 6.134 3.212 12.36 4.334 21.69 3.908 1.187-0.0542 2.24-0.23 2.339-0.3907 0.0993-0.1607 0.5163-0.2922 0.9267-0.2922 1.103 0 6.345-1.413 9.627-2.596 1.578-0.5685 5.087-2.164 7.797-3.545 2.71-1.381 4.958-2.472 4.995-2.425 0.037 0.04709 0.787 1.454 1.666 3.126 1.513 2.876 4.12 7.553 7.083 12.71 0.7302 1.271 1.328 2.4 1.328 2.511s0.2701 0.5826 0.6003 1.05c1.263 1.787 4.483 8.228 4.267 8.534-0.1249 0.1765-0.875 0.7414-1.667 1.255-3.433 2.228-6.444 5.727-8.573 9.965-2.552 5.079-3.409 9.274-3.189 15.62 0.1421 4.107 0.2601 4.823 1.316 7.983 1.059 3.171 3.474 8.151 7.859 16.21 1.836 3.373 4.155 8.968 5.041 12.16 0.4465 1.609 0.5767 3.24 0.5744 7.2-3e-3 5.649-0.4817 8.08-2.396 12.17-0.5244 1.122-0.9535 2.115-0.9535 2.207 0 0.1505-1.334 2.226-2.79 4.34-1.165 1.691-5.167 5.577-7.77 7.545-2.947 2.227-9.148 5.446-12.48 6.48-1.144 0.3548-3.808 1.099-5.92 1.654-7.993 2.099-12.82 3.539-15.04 4.488-5.125 2.189-9.098 4.613-12.2 7.445-1.988 1.815-4.737 5.35-5.838 7.508-0.3814 0.748-0.8145 1.36-0.9624 1.36s-0.7123-0.8318-1.254-1.848zm-43.97-43.08-0.08982-3.505-1.76-0.3618c-2.23-0.4585-3.382-1.081-4.846-2.621-2.211-2.325-2.674-3.651-2.674-7.654v-3.548l1.191-1.793c1.756-2.645 3.531-3.591 6.738-3.591h2.489l0.1919-1.2c0.1136-0.7104 0.371-1.2 0.631-1.2 0.6119 0 0.5609-1.6-0.06551-2.058-0.4055-0.2965-0.5046-1.047-0.5046-3.824 0-1.9 0.05709-3.512 0.1269-3.582 0.1729-0.1729 10.09 2.365 10.87 2.781 0.3418 0.1829 0.8177 0.2573 1.057 0.1653 0.2398-0.092 2.053 0.1141 4.029 0.4581 5.33 0.9277 10.34 1.573 13.4 1.726 1.496 0.075 4.808 0.2925 7.36 0.4835 9.515 0.712 24.38-0.4988 37.44-3.049 7.766-1.517 9.584-1.423 11.76 0.6083 1.587 1.483 2.128 3.255 1.92 6.285l-0.1744 2.545 1.489-0.1726c0.819-0.0949 2.969-0.3782 4.779-0.6296 1.809-0.2514 3.492-0.4571 3.738-0.4571 0.3598 0 0.4817 1.031 0.6147 5.2 0.0913 2.86 0.2598 6.054 0.3746 7.099 0.2666 2.427-0.21 4.021-1.692 5.662-1.635 1.81-2.751 2.3-5.365 2.355l-2.24 0.0471-0.0993 1.179c-0.0546 0.6484-0.2346 1.179-0.4 1.179s-0.3007 1.056-0.3007 2.347c0 1.291-0.0602 2.407-0.1337 2.48-0.2652 0.2652-10.28-0.37-10.92-0.6923-0.4504-0.2281-0.9272-0.2258-1.541 8e-3 -1.246 0.4738-2.589 0.4207-3.972-0.1572-0.6841-0.2858-1.228-0.3648-1.287-0.1867-0.1415 0.4246-26.08 0.0596-26.35-0.3709-0.1371-0.2113-0.6863-0.1991-1.62 0.0359-1.919 0.4833-16.91 0.5454-17.2 0.0713-0.1511-0.2445-0.5653-0.2031-1.382 0.1382-2.177 0.9096-4.28 0.5933-5.907-0.8884l-0.72-0.6558-0.7244 0.6805c-0.9741 0.9151-2.861 1.673-4.145 1.664-1.356-9e-3 -3.619-1.039-4.15-1.89-0.6714-1.075-1.22-0.8092-1.22 0.5911v1.255l-2 0.1794c-1.1 0.0987-3.04 0.2226-4.31 0.2754l-2.31 0.096zm87.41-1.935c-0.0412-1.067 0.0345-2.191 0.1682-2.499 0.4142-0.9537-0.0407-1.52-1.221-1.52-1.256 0-1.66 0.6073-0.9925 1.489 0.5176 0.6831 0.5866 1.071 0.1907 1.071-0.1526 0-0.6587-0.576-1.125-1.28-0.6154-0.93-1.067-1.28-1.653-1.28-0.9872 0-1.326 0.7508-0.7895 1.752 0.2458 0.4592 0.3225 1.225 0.1983 1.978-0.4259 2.584-0.4529 2.501 0.8484 2.609 0.8884 0.0735 1.256-0.0395 1.407-0.4323 0.1122-0.2925 0.0646-0.6252-0.1059-0.7395-0.4669-0.3129-0.7534-1.284-0.4366-1.479 0.1533-0.0947 0.6011 0.3687 0.9951 1.03 1.61 2.701 2.636 2.416 2.515-0.6988zm-81.58 1.878c0-0.2766-0.2173-0.7202-0.4829-0.9858-0.5368-0.5368-0.3663-1.071 0.3418-1.071 0.6106 0 0.5949-1.16-0.01889-1.396-0.264-0.1013-0.48-0.3327-0.48-0.5142 0-0.5016 1.149-0.394 1.6 0.15 0.6977 0.8407 1.28 0.5686 1.28-0.5981 0-0.9972-0.09003-1.093-1.2-1.276-3.342-0.5525-4.955 6.4e-4 -3.868 1.327 0.5395 0.6581 0.5172 3.063-0.03447 3.727-0.6135 0.7392-0.106 1.141 1.442 1.141 1.079 0 1.421-0.1212 1.421-0.5029zm10.3-0.7366c2.544-2.273 0.02743-6.007-3.153-4.679-1.907 0.7967-2.331 3.151-0.846 4.7 1.166 1.217 2.621 1.209 3.999-0.022zm-2.922-1.14c-0.5527-0.666-0.1743-2.007 0.6392-2.265 0.9464-0.3004 1.634 0.4132 1.52 1.578-0.07737 0.7929-0.2592 1.006-0.9237 1.083-0.458 0.0532-1.01-0.1235-1.236-0.3958zm64.33 1.124c1.171-1.171 1.246-2.673 0.1971-3.983-0.6173-0.7714-0.9631-0.9155-2.158-0.8992-1.172 0.016-1.579 0.193-2.303 1.004-0.9456 1.058-1.09 1.885-0.5226 2.995 1.022 1.998 3.26 2.411 4.787 0.8836zm-3.03-1.171c-0.5389-1.404 0.2064-2.594 1.39-2.219 0.8029 0.2548 1.193 1.598 0.6526 2.249-0.5213 0.6281-1.797 0.6091-2.042-0.0303zm-49.25 1.09c0.5421-0.5092 0.7406-1.05 0.7406-2.016 0-0.7261 0.1603-1.48 0.3561-1.676 0.5948-0.5948-0.0014-1.052-1.372-1.052-1.198 0-1.282 0.0556-1.079 0.72 0.4483 1.472 0.4604 2.406 0.0385 2.983-0.3693 0.505-0.5109 0.5294-0.9514 0.1638-0.5144-0.4269-0.5202-1.501-0.01714-3.146 0.2062-0.6745 0.1267-0.72-1.257-0.72-1.249 0-1.477 0.096-1.477 0.6211 0 0.3416 0.144 0.7101 0.32 0.8189 0.176 0.1088 0.32 0.8291 0.32 1.601 0 1.087 0.1602 1.515 0.7112 1.901 1.037 0.7261 2.785 0.6319 3.668-0.1976zm36.69 0.226c0.0991-0.2584 0.0425-0.5549-0.1258-0.6589-0.1683-0.104-0.306-0.8574-0.306-1.674 0-1.155 0.0853-1.4 0.384-1.101 0.683 0.683 1.216 0.4306 1.216-0.576v-0.96h-5.12v0.96c0 0.9496 0.6863 1.342 1.12 0.64 0.1088-0.176 0.333-0.32 0.4983-0.32 0.4317 0 0.1617 2.66-0.2851 2.809-0.8516 0.2839-0.3238 0.9976 0.8268 1.118 0.66 0.069 1.293 0.1497 1.406 0.1793 0.1132 0.0296 0.2869-0.1576 0.386-0.416zm7.379 0.1969c0.0928-0.1501-0.0382-0.5461-0.2909-0.88-0.6058-0.8004-0.6079-2.823-3e-3 -3.324 0.7111-0.5902 0.2789-0.9629-1.116-0.9629-1.321 0-1.903 0.465-1.316 1.052 0.1959 0.1959 0.3561 0.9465 0.3561 1.668s-0.1603 1.472-0.3561 1.668c-0.1959 0.1959-0.2594 0.5127-0.1411 0.704 0.2533 0.4098 2.623 0.4718 2.868 0.075zm-36.61-0.39c0-0.1886-0.216-0.5589-0.48-0.8229-0.5871-0.5871-0.6201-1.074-0.07277-1.074 0.224 0 0.6787 0.504 1.01 1.12 0.4252 0.7896 0.8243 1.12 1.353 1.12 0.702 0 0.7496-0.1207 0.7496-1.901 0-1.046 0.144-1.99 0.32-2.099 0.176-0.1088 0.32-0.4053 0.32-0.6589 0-0.3332-0.3995-0.4611-1.44-0.4611-1.453 0-1.732 0.2205-1.09 0.862 0.1925 0.1925 0.3005 0.6068 0.24 0.9206-0.08602 0.4462-0.2845 0.3145-0.91-0.6038-0.6215-0.9123-1.014-1.175-1.76-1.177l-0.96-2e-3v5.12h1.36c0.7538 0 1.36-0.1528 1.36-0.3429zm11.72-0.4065c0.6225-0.5354 0.8712-1.052 0.8712-1.811 0-1.758-1.243-2.56-3.965-2.56-1.721 0-2.222 0.1039-2.222 0.4611 0 0.2536 0.144 0.5501 0.32 0.6589 0.176 0.1088 0.32 0.7653 0.32 1.459s-0.144 1.261-0.32 1.261-0.32 0.288-0.32 0.64c0 0.5786 0.2133 0.64 2.222 0.64 1.869 0 2.361-0.1191 3.093-0.7494zm-2.862-0.744c-0.3402-0.3402-0.2466-2.288 0.1207-2.515 0.4907-0.3033 1.906 0.7304 1.906 1.392 0 1.019-1.371 1.779-2.027 1.123zm9.639 0.7733c-0.095-0.7427 0.0413-0.88 0.874-0.88 0.3587 0 0.4335 0.2096 0.2853 0.8-0.1898 0.7561-0.1286 0.8 1.114 0.8 0.7231 0 1.315-0.1136 1.315-0.2523 0-0.1388-0.2944-0.8228-0.6542-1.52-0.4513-0.8746-0.5956-1.59-0.4655-2.308l0.1886-1.04h-4.107l0.03307 1.261c0.02228 0.8497-0.2047 1.583-0.6957 2.247-0.9103 1.231-0.6902 1.612 0.9316 1.612 1.134 0 1.263-0.0785 1.181-0.72zm0.218-2.176c-0.3041-0.492 0.1124-0.8094 0.5231-0.3987 0.2298 0.2298 0.2353 0.4088 0.0168 0.5439-0.1792 0.1107-0.4221 0.0454-0.5399-0.1452zm-48.37-4.351c1.25-0.875 2.806-3.071 2.438-3.439-0.0904-0.0904-0.7551-0.2588-1.477-0.3743-1.088-0.1739-1.431-0.0919-2.001 0.4781-1.695 1.695-3.941 1.373-4.927-0.7065-0.9451-1.992-0.4295-4.197 1.135-4.855 1.332-0.5602 2.34-0.2716 3.445 0.9866 0.7307 0.8322 1.295 1.135 2.4 1.286l1.445 0.1981v-4.858l-1.092-0.2049c-0.6007-0.1127-1.362-0.1192-1.692-0.0144-0.33 0.1047-1.165-0.0976-1.855-0.4496-3.755-1.914-7.52 0.9339-7.52 5.688 0 5.821 5.378 9.293 9.703 6.265zm8.537-0.0758c0-0.9248-0.1465-1.281-0.5726-1.392-0.3839-0.1004-0.5603-0.432-0.5352-1.006 0.05118-1.169 0.4223-1.421 1.828-1.242 1.121 0.143 1.2 0.225 1.2 1.238 0 0.7511-0.1477 1.085-0.48 1.085-0.3461 0-0.48 0.3546-0.48 1.271v1.271l11.04-0.142 0.1104-0.7821c0.06663-0.4721-0.1078-0.9416-0.4401-1.185-0.9632-0.7043-0.3304-1.393 1.28-1.393 0.7975 0 1.45 0.0602 1.45 0.1338 0 0.0736 0.08741 0.3616 0.1942 0.64 0.1275 0.3322 0.01745 0.5062-0.32 0.5062-0.3739 0-0.5142 0.3042-0.5142 1.114v1.114l5.488-0.0742c5.398-0.073 5.49-0.0859 5.597-0.7848 0.06975-0.458-0.1181-0.8317-0.5283-1.051-0.5372-0.2875-0.6366-0.672-0.6366-2.463 0-1.167 0.09772-2.024 0.2172-1.905 0.1194 0.1194 0.5914 1.115 1.049 2.213 0.5948 1.428 1.019 2.023 1.491 2.092 0.8155 0.118 1.108-0.2488 2.053-2.575 0.4112-1.012 0.8652-1.84 1.009-1.84s0.2611 0.9396 0.2611 2.088c0 1.894-0.06938 2.114-0.7485 2.373-0.5186 0.1972-0.7319 0.5142-0.6942 1.032 0.05186 0.7139 0.1791 0.7516 2.829 0.84l2.774 0.0924v-0.9509c0-0.6483-0.1907-1.011-0.5993-1.141-0.5182-0.1645-0.6066-0.5605-0.6532-2.928-0.0499-2.533-0.0038-2.751 0.6164-2.913 0.5298-0.1385 0.65-0.3846 0.5732-1.173-0.05416-0.5565-0.2742-0.984-0.4972-0.9662-0.22 0.0176-1.458 0.0536-2.751 0.08l-2.351 0.048-1.6 3.68-1.859-3.84h-5.44l-0.1036 0.9038c-0.07951 0.694 0.0505 0.9441 0.56 1.077 0.6082 0.159 0.6636 0.4092 0.6636 2.997 0 1.582-0.1441 2.913-0.3278 3.026-0.1803 0.1114-0.7273 0.1149-1.215 8e-3 -0.7769-0.1706-1.015-0.5429-1.906-2.984-0.8811-2.414-0.9544-2.837-0.5445-3.144 0.2604-0.1954 0.4735-0.724 0.4735-1.175 0-0.9983-0.4667-1.116-4.96-1.253l-3.2-0.0973-0.1003 1.04c-0.07449 0.7726 0.02835 1.04 0.4 1.04 0.2752 0 0.5003 0.1573 0.5003 0.3496 0 0.8759-1.749 5.306-2.282 5.781-0.5884 0.524-1.864 0.4649-1.892-0.0877-8e-3 -0.1555-0.02153-1.543-0.03006-3.083-0.01282-2.314 0.07307-2.818 0.4945-2.903 0.3588-0.0728 0.5101-0.463 0.5101-1.315v-1.212l-1.68-0.2018c-0.924-0.111-2.148-0.203-2.72-0.2046-0.9695-3e-3 -1.04 0.0708-1.04 1.083 0 0.6699 0.1838 1.156 0.48 1.27 0.264 0.1013 0.48 0.5487 0.48 0.9942 0 0.7435-0.1152 0.81-1.403 0.81-1.067 0-1.437-0.1339-1.548-0.56-0.203-0.7828 0.04199-1.36 0.5773-1.36 0.5362 0 0.6425-2.085 0.1227-2.407-0.1819-0.1124-1.406-0.2857-2.72-0.3851l-2.389-0.1807v1.132c0 0.711 0.1785 1.2 0.48 1.316 0.3845 0.1475 0.48 0.8526 0.48 3.543 0 3.025-0.06322 3.393-0.6366 3.699-0.4243 0.2271-0.5923 0.5776-0.5038 1.051 0.07303 0.3908 0.1435 0.8103 0.1566 0.9322 0.02384 0.2222 1.562 0.418 4.104 0.5225l1.36 0.0559zm12.05-4.44c-0.08266-0.1338 0.06964-0.7458 0.3384-1.36l0.4887-1.117 0.4282 0.96c0.2355 0.528 0.4347 1.14 0.4427 1.36 0.01545 0.4282-1.447 0.5632-1.698 0.1568zm28.22 4.78c0.0747-0.5276-0.0814-0.7922-0.5379-0.9115-0.7302-0.191-1.167-1.034-0.7511-1.45 0.1526-0.1526 0.8413-0.3248 1.53-0.3829 0.6892-0.058 1.422-0.1252 1.629-0.1491 0.2065-0.024 0.8185-0.4164 1.36-0.872 1.315-1.106 1.391-3.059 0.1716-4.375-0.7988-0.8614-0.8796-0.8767-4.64-0.8767-2.105 0-3.935-0.036-4.067-0.08s-0.2846 0.3063-0.3392 0.7785c-0.06987 0.6048 0.09563 0.9627 0.56 1.211 0.5855 0.3134 0.6592 0.6541 0.6592 3.05 0 2.37-0.0777 2.739-0.64 3.04-0.6295 0.3369-0.8564 1.277-0.4148 1.719 0.1239 0.1239 1.384 0.1839 2.8 0.1333 2.419-0.0863 2.581-0.1368 2.68-0.8352zm-1.237-5.03c-0.5893-0.7101-0.2429-1.893 0.5889-2.011 1.69-0.2396 2.27 1.778 0.6357 2.212-0.5778 0.1535-0.986 0.0866-1.225-0.2008zm11.85 4.944c0-0.7208-0.174-1.035-0.64-1.157-0.5826-0.1524-0.64-0.4365-0.64-3.17 0-2.82 0.0401-3.003 0.6603-3.003 0.5522 0 0.6439-0.1703 0.56-1.04-0.0992-1.029-0.1185-1.04-1.86-1.082-0.968-0.0231-2.228 0.0318-2.8 0.1219-0.9025 0.1422-1.04 0.2892-1.04 1.112 0 0.679 0.1817 0.9956 0.64 1.115 0.5794 0.1515 0.64 0.4365 0.64 3.01 0 2.629-0.048 2.843-0.64 2.843-0.5181 0-0.64 0.2133-0.64 1.12v1.12h5.76zm8.608 0.5263c4.916-2.542 3.974-10.05-1.336-10.65-3.709-0.418-7.272 2.439-7.272 5.83 0 2.038 1.596 4.329 3.52 5.052 0.977 0.3671 4.215 0.219 5.088-0.2328zm-4.473-3.032c-1.192-1.192-1.229-2.506-0.1069-3.84 0.6529-0.776 1.082-0.9846 2.024-0.9846 1.631 0 2.587 1.032 2.587 2.792 0 1.071-0.1802 1.463-0.9846 2.139-1.29 1.086-2.36 1.053-3.52-0.1069zm13.17 2.998c0.1607-0.0993 0.2922-0.5873 0.2922-1.084 0-0.6347-0.1906-0.9536-0.64-1.071-0.5438-0.1422-0.64-0.4365-0.64-1.957 0-0.9845 0.0601-1.79 0.1336-1.79 0.0735 0 0.9735 1.367 2 3.038l1.866 3.038 2.72 4e-3v-4.789c0-4.461 0.0438-4.812 0.64-5.131 0.8083-0.4326 0.8856-2.166 0.1098-2.464-0.2916-0.1119-1.54 6.1e-4 -2.775 0.25-2.131 0.4306-2.247 0.4996-2.282 1.363-0.0208 0.5141 0.1914 1.071 0.488 1.28 0.5435 0.3835 1.179 3.41 0.7165 3.41-0.1439 0-0.9024-1.087-1.686-2.416-0.7832-1.329-1.599-2.561-1.813-2.739-0.2362-0.1961-1.16-0.2358-2.351-0.1011l-1.961 0.2219 0.0967 1.157c0.06 0.717 0.2488 1.126 0.4967 1.077 0.2997-0.0599 0.4 0.7627 0.4 3.28 0 2.685-0.091 3.36-0.4533 3.36-0.5752 0-0.7377 0.4908-0.561 1.695l0.1398 0.9522 2.385-0.2016c1.312-0.1109 2.517-0.2829 2.677-0.3822zm16.05-0.6924c1.009-0.9134 1.523-2.191 1.523-3.787 0-2.056-1.414-3.514-3.699-3.815-2.842-0.374-3.529-0.8949-2.518-1.907 0.7145-0.7145 1.334-0.6253 2.208 0.3179 0.6083 0.6564 1.006 0.8006 1.985 0.72l1.224-0.1008v-4.48l-1.12 0.1106c-0.616 0.0608-1.236 0.3138-1.377 0.5621-0.1899 0.3335-0.4144 0.3673-0.859 0.1294-0.331-0.1772-1.115-0.3221-1.742-0.3221-1.464 0-3.421 1.698-4.008 3.476-0.3682 1.116-0.3468 1.405 0.1845 2.493 0.6859 1.404 2.232 2.312 3.98 2.335 1.399 0.0189 2.33 0.6514 2.173 1.477-0.1906 1.004-1.773 0.9936-2.829-0.0181-0.7036-0.674-1.136-0.8258-2.123-0.7448l-1.24 0.1017-0.1892 4.32h1.26c0.8643 0 1.323-0.1622 1.458-0.516 0.1608-0.4189 0.288-0.4414 0.6762-0.1192 1.226 1.018 3.779 0.8987 5.031-0.2343zm-61.51-9.89c1.277-0.5108 2.234-1.735 2.234-2.856 0-0.9055-2.021-2.622-3.539-3.006-2.109-0.5339-2.926-0.9403-2.779-1.382 0.2222-0.6674 1.232-0.6511 2.16 0.0349 0.4854 0.3588 1.434 0.6968 2.108 0.751l1.225 0.0986 8e-3 -2.88-1.431-0.0236c-0.7871-0.013-2.03-0.2118-2.762-0.442-2.391-0.7518-4.589 0.516-4.589 2.647 0 1.48 1.139 2.553 3.44 3.241 1.012 0.3026 2.031 0.6099 2.264 0.6829 0.6511 0.2039 0.2954 1.242-0.4628 1.351-0.3703 0.0531-1.112-0.2734-1.651-0.7266-0.6138-0.5165-1.435-0.8504-2.204-0.8965l-1.226-0.07335v1.587c0 1.527 0.03843 1.595 1.02 1.796 0.5612 0.1148 1.139 0.0899 1.284-0.0552 0.1451-0.1451 0.838-0.0595 1.54 0.1904 1.642 0.5848 1.812 0.5829 3.362-0.0373zm9.986-0.0642c0.4231-0.4231-0.0039-1.656-0.5734-1.656-0.362 0-0.4584-0.5724-0.4584-2.72 0-1.755 0.1241-2.72 0.35-2.72 0.1925 0 0.4257 0.2896 0.5182 0.6435 0.1891 0.723 1.569 1.207 2.056 0.7205 0.1744-0.1744 0.2719-0.9486 0.2166-1.721l-0.1005-1.403-2.88-0.2467c-1.584-0.1357-3.672-0.2077-4.64-0.16l-1.76 0.0867-0.09955 1.384c-0.05476 0.761 0.07088 1.589 0.2792 1.84 0.5975 0.7199 1.562 0.5454 1.9-0.3436 0.5921-1.557 0.96-0.8347 0.96 1.886 0 2.092-0.1061 2.726-0.48 2.87-0.4301 0.165-0.6822 1.495-0.3471 1.831 0.2681 0.2691 4.757 0.0113 5.059-0.2905zm7.865-0.6305c0.075-0.7269-0.0529-0.9813-0.56-1.114-0.5954-0.1557-0.6572-0.4182-0.6572-2.792 0-2.351 0.0657-2.637 0.64-2.787 0.4559-0.1192 0.64-0.4365 0.64-1.103v-0.9356l-2.64 0.093c-2.599 0.0915-2.642 0.1062-2.739 0.9514-0.06987 0.6048 0.09563 0.9627 0.56 1.211 0.5748 0.3076 0.6592 0.6572 0.6592 2.73 0 2.05-0.08816 2.425-0.64 2.72-0.5585 0.2989-0.8882 1.564-0.5072 1.947 0.07304 0.0733 1.261 0.1081 2.64 0.0772l2.507-0.05625zm4.823 0.6944c0.8417-0.1684 1-0.3456 1-1.12 0-0.7067-0.1484-0.92-0.64-0.92-0.5547 0-0.64-0.2133-0.64-1.6 0-0.88 0.0621-1.6 0.138-1.6 0.0759 0 0.9498 1.152 1.942 2.56 1.734 2.46 1.853 2.56 3.062 2.56h1.258v-3.801c0-2.988 0.1026-3.886 0.48-4.199 0.264-0.2191 0.48-0.8214 0.48-1.339v-0.9402l-2.32 0.2207c-2.772 0.2638-2.8 0.2766-2.8 1.307 0 0.542 0.2124 0.8666 0.64 0.9784 0.5014 0.1311 0.64 0.4365 0.64 1.41 0 0.6835-0.0605 1.243-0.1343 1.243-0.0739 0-0.8806-1.026-1.793-2.28l-1.658-2.28-1.771 0.2081c-0.9738 0.1144-1.895 0.285-2.047 0.3791-0.5088 0.3145-0.2841 1.387 0.3633 1.733 0.5574 0.2983 0.64 0.67 0.64 2.88 0 2.149-0.0914 2.586-0.5969 2.857-0.4814 0.2576-0.7026 1.278-0.404 1.863 0.0832 0.163 3.195 0.0732 4.161-0.12zm-31.32-2.2v-2.08h-0.9669c-0.7208 0-1.06 0.2036-1.331 0.8-0.3157 0.6929-0.5718 0.8-1.913 0.8h-1.549v-1.121c0-1.068 0.04909-1.117 1.04-1.04 0.9902 0.0773 1.04 0.0277 1.04-1.036 0-0.9909-0.1083-1.135-0.96-1.282-0.7025-0.1209-0.9886-0.3666-1.067-0.9158-0.1016-0.7156-0.04203-0.7404 1.28-0.5314 0.9683 0.1531 1.628 0.5016 2.187 1.156 0.4477 0.524 1.117 0.935 1.52 0.9334 0.6633-3e-3 0.72-0.1485 0.72-1.854v-1.851l-4.08-0.5794c-2.244-0.3187-4.476-0.6558-4.96-0.7491-0.8294-0.16-0.88-0.103-0.88 0.9903 0 0.8178 0.1416 1.16 0.48 1.16 0.264 0 0.4869 0.144 0.4952 0.32 0.1639 3.441-0.0059 5.569-0.4648 5.826-0.2808 0.1571-0.5105 0.6917-0.5105 1.188 0 1.068 0.5143 1.206 5.6 1.507 1.76 0.1038 3.26 0.2452 3.333 0.3141 0.07333 0.0689 0.3253 0.1253 0.56 0.1253 0.3118 0 0.4267-0.56 0.4267-2.08zm46.72 1.161 2.08-0.2006 0.0946-2.16c0.0995-2.272 0.0371-2.358-1.428-1.965-0.4003 0.1074-0.7826 0.5434-0.9054 1.032-0.2699 1.075-0.6715 1.322-2.162 1.328-1.121 5e-3 -1.2-0.0582-1.2-0.9551 0-0.8045 0.1265-0.96 0.7811-0.96 0.9033 0 1.266-0.4556 1.269-1.593 1e-3 -0.6776-0.1658-0.8233-1.043-0.9087-0.8675-0.0844-1.028-0.2204-0.9458-0.8 0.0793-0.5571 0.3746-0.735 1.461-0.88 1.186-0.1583 1.426-0.0839 1.86 0.5793 0.3596 0.5488 0.7385 0.7333 1.359 0.6617 0.8202-0.0947 0.8644-0.1929 0.9558-2.121l0.0958-2.022-1.536 0.2278c-0.8447 0.1253-3.048 0.4671-4.896 0.7596l-3.36 0.5318-0.1003 1.022c-0.0742 0.7566 0.0298 1.022 0.4 1.022 0.7236 0 0.7429 5.598 0.0203 5.876-0.2848 0.1093-0.48 0.5904-0.48 1.183v0.9988l2.8-0.2281c1.54-0.1254 3.736-0.3184 4.88-0.4287zm9.76-1.186c1.541-0.3638 2.151-0.7074 3.09-1.741 2.77-3.049 2.273-8.243-0.888-9.286-1.209-0.3989-2.178-0.3131-6.282 0.5562l-2.48 0.5254v1.066c0 0.7338 0.1494 1.066 0.48 1.066 0.3931 0 0.48 0.5522 0.48 3.05 0 2.416-0.0998 3.088-0.48 3.234-0.2985 0.1145-0.48 0.6022-0.48 1.289v1.105l2.32-0.2056c1.276-0.1131 3.184-0.4096 4.24-0.6589zm-2.4-5.214v-3.16l0.9975-0.1995c2.273-0.4546 3.637 1.435 2.874 3.982-0.415 1.385-1.842 2.534-3.151 2.536-0.6981 1e-3 -0.72-0.0947-0.72-3.159zm-66.64 5.031c2.95-1.823 2.586-6.824-0.6676-9.16-1.249-0.8969-6.752-2.631-8.349-2.631-0.7905 0-0.676 2.124 0.138 2.56 0.5715 0.3058 0.64 0.67 0.64 3.401 0 2.816-0.05218 3.072-0.6568 3.23-0.5351 0.1399-0.6389 0.3864-0.56 1.33l0.09683 1.158 2.4 0.3626c3.933 0.5944 5.693 0.5308 6.959-0.2514zm-5.146-2.085c-0.1173-0.1173-0.2133-1.557-0.2133-3.2 0-2.884 0.02468-2.987 0.72-2.985 1.053 2e-3 2.768 1.153 3.128 2.1 0.5155 1.356 0.3717 2.959-0.328 3.659-0.6263 0.6263-2.823 0.9098-3.307 0.4267zm-25.24-11.28c-0.2895-0.3381-0.6797-0.9012-0.8671-1.251-0.1874-0.3502-0.8641-0.9602-1.504-1.356-1.011-0.6251-1.297-0.6705-2.187-0.3486-1.314 0.4752-3.621 0.4738-5.011-3e-3 -2.846-0.977-8.295-5.382-10.3-8.324-1.721-2.529-1.699-2.607 0.6952-2.524 2.532 0.08768 5.656 1.028 7.827 2.355 2.61 1.597 5.112 3.613 5.808 4.682 1.384 2.127 1.007 0.8004-0.7893-2.775-1.039-2.068-2.391-4.865-3.005-6.215-0.6138-1.35-1.38-2.597-1.702-2.769-0.3225-0.1726-1.408-0.4657-2.411-0.6512-1.004-0.1857-2.371-0.6161-3.038-0.9566-2.619-1.336-6.586-6.132-8.573-10.37-1.416-3.016-1.678-4.082-1.004-4.082 0.8319 0 3.928 1.483 6.053 2.9 1.74 1.16 5.351 4.918 5.351 5.569 0 0.4232 2.948 5.65 3.101 5.497 0.1466-0.1466-0.1547-1.3-1.516-5.806-0.3722-1.232-0.9547-3.372-1.295-4.756-0.8121-3.307-1.421-4.107-3.781-4.968-4.002-1.459-6.314-5.692-8.65-15.84-0.1979-0.8597-0.2776-1.645-0.177-1.746 0.3996-0.3996 2.493 1.121 4.783 3.475 2.683 2.757 3.923 5.01 4.929 8.954 0.3365 1.32 0.7981 2.832 1.026 3.36 0.4052 0.9397 0.4167 0.9438 0.5453 0.1923 0.07226-0.4223-0.02544-2.374-0.2171-4.337-0.1917-1.963-0.3494-4.498-0.3505-5.632-0.0024-2.562-0.3999-3.34-2.879-5.636-2.634-2.439-3.352-3.87-4.307-8.587-0.9676-4.782-0.99-9.76-0.04389-9.76 0.73 0 3.351 3.408 4.43 5.76 1.682 3.667 2.452 6.93 2.527 10.7l0.04455 2.261 0.3033-2.08c0.1668-1.144 0.3886-2.296 0.4928-2.56 0.2287-0.5792 0.3173-0.9674 0.6938-3.04 0.2339-1.288 0.2575-1.038 0.1209 1.28-0.1428 2.421-0.1005 2.814 0.2652 2.464 0.2519-0.2408 0.4442-1.124 0.4568-2.098 0.02682-2.062 1.325-4.151 3.517-5.659 1.484-1.021 6.96-3.827 7.468-3.827 0.1623 0 0.1474 0.5876-0.03438 1.36-0.575 2.443-2.138 5.297-3.857 7.045-1.451 1.475-2.054 1.827-4.523 2.641-3.892 1.284-4.038 1.541-3.998 7.034 0.01689 2.288 0.1243 4.488 0.2388 4.888 0.1977 0.6914 0.2302 0.6754 0.6509-0.32 0.2436-0.5763 0.6699-1.552 0.9473-2.168 0.5794-1.286 6.975-8 7.621-8 0.5926 0 0.5714 3.48-0.03549 5.81-1.086 4.169-3.116 7.178-6.156 9.123-2.804 1.794-3.064 2.731-2.025 7.307 0.1598 0.704 0.5278 2.36 0.8179 3.68s0.7165 2.832 0.9475 3.36 0.601 1.574 0.8221 2.324c0.4148 1.407 1.258 2.496 1.258 1.624 0-0.2476-0.3031-1.309-0.6736-2.359-0.5341-1.514-0.6461-2.439-0.5408-4.469 0.1172-2.259 0.3028-2.898 1.58-5.44 0.7958-1.584 1.795-3.5 2.221-4.258 0.4256-0.7579 0.9375-1.671 1.138-2.028 0.7143-1.278 1.457 1.585 1.63 6.279 0.1841 5.01-0.7155 7.822-3.572 11.17-1.909 2.235-2.018 2.86-0.9581 5.524 1.605 4.037 3.559 7.951 4.292 8.598l0.7249 0.64-0.219-1.12c-0.1204-0.616-0.3774-1.876-0.5711-2.801-0.343-1.637-0.02719-4.803 0.71-7.119 0.1401-0.44 0.6533-2.204 1.14-3.92 0.4872-1.716 0.9701-3.12 1.073-3.12 0.6192 0 2.201 4.292 2.917 7.914 0.5811 2.94-0.08101 7.281-1.594 10.45-0.5373 1.126-0.977 2.5-0.977 3.054 0 1.175 0.8103 2.872 2.208 4.626 0.5455 0.6842 0.9918 1.368 0.9918 1.52 0 0.4641-0.4697 0.3087-1.024-0.3387zm-14.5-41.63c-0.1106-0.3484-0.3508-0.6335-0.5338-0.6335s-0.2453 0.2278-0.1384 0.5062c0.1068 0.2784 0.1986 0.8184 0.204 1.2 0.0088 0.6302 0.03998 0.6419 0.3395 0.1274 0.1814-0.3116 0.2393-0.8516 0.1287-1.2zm138.4 41.74c0-0.1015 0.5772-0.9907 1.283-1.976s1.435-2.357 1.621-3.049c0.2982-1.107 0.2382-1.463-0.5034-2.978-1.042-2.13-1.348-3.136-1.929-6.34-0.3967-2.188-0.3971-2.876-4e-3 -5.12 0.5104-2.91 1.593-6.147 2.426-7.251 0.5488-0.7275 0.5601-0.7103 1.395 2.122 2.301 7.81 2.434 8.838 1.664 12.88-0.4451 2.334-0.4446 2.338 0.1957 1.76 1.217-1.098 5.051-9.418 5.051-10.96 0-0.8084-1.431-3.2-2.199-3.674-0.6912-0.4272-2.249-3.653-2.762-5.72-0.7359-2.965-0.3338-9.848 0.6701-11.47 0.2506-0.4055 2.006 2.466 3.937 6.442 1.32 2.718 1.486 3.309 1.586 5.662 0.0884 2.071-0.0371 3.076-0.5929 4.746-0.7093 2.131-0.7235 2.79-0.0424 1.97 1.466-1.767 4.308-13.83 3.767-15.99-0.1381-0.5503-0.8431-1.202-2.179-2.013-1.086-0.6598-2.378-1.642-2.87-2.183-1.573-1.728-3.086-5.002-3.66-7.919-0.5223-2.658-0.4404-5.064 0.1723-5.064 0.153 0 1.777 1.505 3.609 3.343 2.142 2.15 3.536 3.835 3.906 4.72 0.9382 2.248 1.234 2.817 1.466 2.817 0.3563 0 0.677-5.635 0.443-7.783-0.2194-2.014-0.5892-3.073-1.219-3.49-0.1936-0.1282-1.533-0.6109-2.976-1.073-3.312-1.059-5.16-2.728-6.881-6.214-1.142-2.313-1.854-4.8-1.374-4.8 0.7034 0 7.124 3.495 8.264 4.498 1.774 1.561 2.862 3.752 2.722 5.482-0.0745 0.9237 0.0289 1.368 0.3429 1.475 0.3716 0.1259 0.4185-0.3132 0.2704-2.531l-0.1792-2.683 0.6126 2.88c0.3369 1.584 0.7274 3.456 0.8678 4.16 0.2375 1.191 0.2708 1.1 0.4806-1.314 0.2754-3.169 1.188-6.741 2.317-9.071 1.12-2.312 3.164-5.294 4.061-5.926 0.7046-0.496 0.73-0.4767 1.133 0.8613 0.4463 1.482 0.2085 4.292-0.7927 9.369-0.7503 3.805-1.684 5.555-4.387 8.227l-2.361 2.333-0.1958 2.24c-0.1077 1.232-0.2721 3.896-0.3655 5.92-0.0933 2.024-0.2431 3.92-0.3327 4.213-0.0896 0.2932-0.0173 0.6231 0.1606 0.7331 0.178 0.11 0.4117-0.2019 0.5193-0.6931 0.524-2.392 2.56-7.759 3.489-9.197 1.854-2.87 6.456-6.801 7.15-6.107 0.2475 0.2475-0.9861 5.51-2.056 8.771-1.271 3.875-3.893 7.56-5.951 8.365-3.407 1.333-3.746 1.74-4.691 5.637-0.3359 1.385-0.8296 3.166-1.097 3.958-0.2675 0.792-0.7037 2.304-0.9694 3.36-0.2656 1.056-0.587 2.208-0.7141 2.56-0.1746 0.4836-0.1383 0.5548 0.1487 0.2913 0.4635-0.4256 1.287-1.864 2.635-4.601 1.439-2.922 4.838-6.207 8.029-7.758 2.974-1.446 4.091-1.767 4.091-1.177 0 0.6398-0.9867 3.144-1.877 4.763-3.55 6.457-6.855 9.536-11.01 10.26-1.87 0.3237-2.291 0.5277-3.091 1.499-0.5096 0.6182-1.177 1.791-1.483 2.606-0.3062 0.8153-1.399 3.148-2.429 5.184-1.03 2.036-1.872 3.809-1.872 3.94s1.044-0.7886 2.32-2.043c3.646-3.585 7.937-5.638 12.08-5.779 2.361-0.08073 2.409 0.01534 1.043 2.101-1.18 1.803-3.772 4.478-5.671 5.852-0.8869 0.6419-1.684 1.254-1.772 1.36-0.088 0.106-0.88 0.5427-1.76 0.9706-1.717 0.8347-4.328 1.029-6.663 0.4968-1.197-0.2729-1.261-0.24-2.939 1.521-1.613 1.692-2.077 2.053-2.077 1.615zm15.93-42.09-0.1159-1.081-0.3404 1.12c-0.3645 1.199-0.2366 1.85 0.2651 1.349 0.169-0.169 0.255-0.7935 0.1913-1.388zm-111.3-2.146c-0.9919-0.3791-1.47-0.7592-1.537-1.221-0.05327-0.3691 0.2106-2.814 0.5863-5.432 2.033-14.17 1.955-13.32 1.381-15-0.3238-0.9504-0.4448-2.032-0.334-2.985 0.1572-1.352 0.0787-1.594-0.8226-2.533l-0.9963-1.038 0.9177-0.9578c0.5047-0.5268 1.18-1.041 1.501-1.143 0.5109-0.1621 0.5837-0.564 0.5837-3.222v-3.036l-1.52-0.6427c-0.836-0.3535-1.808-0.7695-2.16-0.9245-3.002-1.322-3.698-1.6-4.062-1.622-0.813-0.04999-4.259-2.061-4.342-2.534-0.05899-0.3367 0.9442-0.9002 3.36-1.887 5.715-2.335 9.449-3.894 10.88-4.54 0.7461-0.3369 1.442-0.6125 1.546-0.6125 0.1599 0 3.097-1.215 5.417-2.241 0.352-0.1556 1.472-0.6512 2.489-1.101 1.017-0.45 1.925-0.8182 2.018-0.8182s0.7722-0.2723 1.511-0.6052c4.883-2.201 13.15-5.471 16-6.328 1.672-0.5027 1.79-0.4823 6.14 1.065 2.518 0.8955 4.321 1.588 5.808 2.232 0.5546 0.2401 1.153 0.4365 1.33 0.4365s0.875 0.2785 1.552 0.6189c1.223 0.6152 15.3 6.504 22.03 9.216 6.68 2.692 9.76 4.224 9.76 4.855 0 0.1551-0.9379 0.6574-2.084 1.116s-2.694 1.112-3.44 1.452c-2.677 1.219-12.36 5.142-12.7 5.142-0.1972 0-0.3398-0.7141-0.3398-1.701 0-1.667-0.0275-1.717-1.36-2.474-3.93-2.234-11.96-4.849-17.7-5.771-3.945-0.6323-12.72-0.4852-16.97 0.2846-4.118 0.746-9.294 2.408-13.2 4.239-3.613 1.693-3.885 1.964-3.885 3.872 0 0.8527-0.06667 1.55-0.1482 1.55-0.08149 0-0.8788-0.288-1.772-0.64-2.79-1.1-2.88-1.04-2.88 1.915v2.555l1.28 0.8471c1.494 0.9885 1.566 1.342 0.48 2.362-0.6777 0.6366-0.8 1.04-0.8 2.636 0 1.036-0.2311 2.591-0.5135 3.454-0.5412 1.654-0.5278 1.822 0.8274 10.39 0.167 1.056 0.4546 3.216 0.639 4.8 0.1844 1.584 0.4158 3.406 0.5142 4.05 0.1675 1.095 0.1175 1.183-0.782 1.381-0.5285 0.1161-1.132 0.4178-1.342 0.6705-0.4852 0.5846-1.072 0.5588-2.863-0.1258zm18.8-4.178c-0.3053-0.8596-0.5551-1.64-0.5551-1.735 0-0.09473 0.4969-0.3362 1.104-0.5367 1.344-0.4435 2.316-0.03174 2.601 1.101 0.2775 1.106-0.0785 1.943-1.006 2.365-1.305 0.5946-1.558 0.4534-2.144-1.194zm2.581-0.09738c0.1534-0.8053-1.144-1.998-1.685-1.549-0.6633 0.5505 0.0926 2.304 0.9406 2.182 0.353-0.05085 0.6882-0.3356 0.7448-0.6328zm24.61 1.26c-0.0789-0.22-0.0105-0.6582 0.152-0.9738 0.1625-0.3156 0.251-0.9636 0.1968-1.44-0.1088-0.9553-0.0184-1.028 1.261-1.021 1.087 0.0061 1.834 0.447 1.546 0.9128-0.154 0.2492-0.3907 0.24-0.8264-0.03211-0.7262-0.4536-1.055-0.2271-0.766 0.527 0.1148 0.2993 0.4062 0.4684 0.6475 0.3758 0.2413-0.09259 0.4387 0.02316 0.4387 0.2572 0 0.2847-0.2727 0.3734-0.8236 0.2681-0.5791-0.1107-0.8054-0.02626-0.7621 0.2844 0.1207 0.8662-0.0208 1.242-0.4676 1.242-0.2493 0-0.5179-0.18-0.5968-0.4zm-13.46-3.385c-0.7983-0.8821-0.6624-2.144 0.3136-2.912 0.4637-0.3648 1.121-0.6632 1.461-0.6632 0.8927 0 1.856 0.5871 1.856 1.131 0 0.5294-0.8177 0.6379-1.12 0.1487-0.1088-0.176-0.5442-0.32-0.9676-0.32-0.9928 0-1.589 1.029-1.112 1.92 0.408 0.7623 1.201 0.8201 2.148 0.1566 0.3977-0.2785 0.7692-0.3556 0.8766-0.1819 0.2722 0.4404-1.11 1.305-2.086 1.305-0.4616 0-1.078-0.2633-1.369-0.5852zm-75.09-16.34c0-1.068-0.2086-1.493-1.227-2.499-1.714-1.693-2.483-3.105-3.068-5.632-0.6211-2.683-0.6278-4.434-0.02981-7.74 0.6953-3.845 1.419-5.92 2.063-5.92 0.3412 0 2.065 3.548 2.565 5.28 0.2034 0.704 0.5658 2.528 0.8055 4.052 0.4265 2.713 0.2328 5.523-0.6692 9.708-0.3001 1.392 0.2699 0.7022 0.8616-1.043 0.5653-1.667 1.252-2.203 1.038-0.8097-0.1241 0.8056-0.0998 0.8326 0.2491 0.2769 0.2126-0.3387 0.3746-1.037 0.36-1.552-0.03259-1.146 1.852-3.05 4.252-4.296 1.297-0.6732 6.939-2.337 7.925-2.337 0.4759 0-0.1653 1.776-1.241 3.436-2.041 3.15-5.492 5.234-8.913 5.382-0.7104 0.03074-1.524 0.07541-1.808 0.09927-0.9695 0.08142-2.164 1.642-2.385 3.116-0.2745 1.831-0.7784 2.14-0.7784 0.4786zm152.2 0.1292c-0.758-3.073-1.356-3.582-4.512-3.843-1.487-0.123-2.818-0.4738-3.985-1.051-2.006-0.9916-4.761-3.608-5.551-5.271-0.5657-1.192-0.7122-2.475-0.2827-2.475 1.017 0 6.901 1.804 8.066 2.473 1.856 1.066 3.84 3.192 3.84 4.114 0 0.9512 0.3139 1.733 0.6958 1.733 0.169 0 0.2159-0.288 0.1042-0.64s-0.0757-0.64 0.08-0.64c0.1557 0 0.5328 0.792 0.8379 1.76 0.3051 0.968 0.6914 1.76 0.8584 1.76 0.4105 0 0.3814-0.2416-0.2315-1.92-0.3854-1.055-0.5275-2.551-0.532-5.6-7e-3 -4.695 0.5276-7.126 2.36-10.73l1.052-2.069 0.7432 1.623c1.188 2.593 1.815 6.273 1.633 9.575-0.2138 3.871-1.09 6.264-3.007 8.21-1.031 1.047-1.555 1.884-1.709 2.731l-0.2223 1.221zm-100.1-1.973c-0.1173-0.1173-0.2133-2.855-0.2133-6.084v-5.871l1.68-0.7654c1.455-0.663 4.632-1.862 7.28-2.747 0.768-0.2568 3.105-0.7952 7.2-1.659 2.625-0.5536 13.75-0.5514 16.48 0.0033 6.367 1.295 8.371 1.865 14 3.976l2.64 0.9904v6.185c0 3.402-0.0802 6.185-0.1781 6.185-0.098 0-1.358-0.4862-2.8-1.08-5.575-2.297-11.98-3.89-17.34-4.308-7.527-0.5882-17.6 0.7968-22.72 3.122-1.015 0.4615-5.542 2.266-5.684 2.266-0.0709 0-0.2249-0.096-0.3422-0.2133zm92.72-13.37c-2.787-2.098-4.776-5.166-5.565-8.585-0.3407-1.476-0.437-4.818-0.1472-5.108 0.2094-0.2094 0.7477 0.2385 3.838 3.194 3.844 3.676 5.103 6.468 4.363 9.673-0.2022 0.8761-0.2836 1.812-0.1807 2.08 0.2586 0.6738 0.238 0.6626-2.309-1.255zm-139.3-0.676c-0.662-3.297 0.5279-6.239 3.845-9.51 1.483-1.462 3.911-3.433 4.23-3.433 0.482 0 0.1495 4.51-0.4721 6.403-0.7203 2.194-2.309 4.872-3.53 5.951-0.9117 0.8054-3.229 2.366-3.514 2.366-0.1108 0-0.3622-0.8-0.5585-1.778z" fill="#170261"/>
 <path d="m92.32 171.3c-2.352-2.197-7.316-5.634-9.76-6.758-5.328-2.451-8.529-3.512-20.64-6.845-8.841-2.433-14.62-5.53-19.59-10.5-2.916-2.916-4.873-5.923-6.089-9.353-1.5-4.233-1.363-11.22 0.3093-15.78 0.9064-2.473 3.596-8.069 5.399-11.23 4.784-8.394 7.312-15.02 7.893-20.69 0.3959-3.857-0.07146-11.87-0.8635-14.8-1.812-6.713-4.534-11.65-8.636-15.67-1.782-1.745-1.91-2.185-0.9817-3.372 0.3442-0.44 0.629-0.9087 0.6329-1.042 0.0039-0.1329 1.04-2.077 2.303-4.32 1.263-2.243 2.908-5.227 3.657-6.631 0.7486-1.404 1.504-2.6 1.679-2.658 0.1747-0.05822 1.013 0.2448 1.863 0.6733 1.98 0.9982 6.218 2.706 8.221 3.312 1.517 0.4593 1.55 0.496 1.338 1.488-0.5563 2.603-1.823 11.55-2.001 14.14l-0.1545 2.244 1.231 0.6911c1.463 0.8213 3.873 1.691 4.705 1.697 0.4462 0.0035 0.5326 0.1441 0.347 0.5647-0.136 0.308-0.3085 1.64-0.3834 2.96-0.1722 3.035 0.7231 6.834 2.451 10.4 1.383 2.855 1.532 3.065 4.625 6.514 2.322 2.589 4.571 5.815 5.442 7.806 0.2889 0.66 0.7412 1.69 1.005 2.288s0.48 1.224 0.48 1.39c0 0.1661 0.288 0.5627 0.64 0.8812 0.6298 0.57 0.64 0.5589 0.64-0.6923 0-2.32-1.188-5.456-3.981-10.51-0.6812-1.232-1.576-2.698-1.989-3.259s-0.7501-1.11-0.7501-1.221-0.36-0.6747-0.8-1.252-0.8-1.146-0.8-1.265c0-0.1189-0.3361-0.7533-0.7469-1.41-3.388-5.415-3.395-12.23-0.01217-12.23 0.9019 0 1.444 0.3085 2.809 1.6 1.565 1.48 2.75 2.035 2.75 1.289 0-0.171-0.3427-1.071-0.7616-2-0.9361-2.076-2.98-4.222-4.501-4.723-0.6256-0.2065-1.138-0.5422-1.138-0.7459 0-0.2038-0.2173-1.957-0.4828-3.895-0.9494-6.931-1.097-8.022-1.262-9.314l-0.1668-1.309 2.956 0.4179c7.215 1.02 15.31 0.02279 22.43-2.763l3.155-1.234 2.656 1.071c6.728 2.712 16.04 3.989 22.21 3.045 8.017-1.226 12.27-2.358 16.92-4.501 0.7555-0.3482 1.979-0.8671 2.72-1.153 0.7405-0.286 1.483-0.6424 1.65-0.792 0.7754-0.6935 1.363-0.1468 2.719 2.528 0.7802 1.54 1.657 3.16 1.949 3.6s1.436 2.528 2.543 4.64 2.137 3.977 2.289 4.144c0.56 0.615 0.2249 1.336-1.425 3.068-5.368 5.633-8.56 12.97-9.547 21.96-0.6705 6.099 0.4249 12.5 3.331 19.47 1.305 3.129 1.608 3.748 3.756 7.68 6.134 11.23 8.008 16.28 7.997 21.54-7e-3 3.667-0.8146 6.86-2.645 10.46-1.647 3.239-4.228 6.275-7.59 8.93-3.181 2.511-4.956 3.538-9.76 5.647-1.585 0.696-8.922 2.821-14.4 4.171-5.084 1.253-13.48 4.726-17.25 7.139-2.289 1.464-2.045 1.271-5.275 4.178-1.476 1.329-2.772 2.409-2.88 2.4-0.1078-8e-3 -1.204-0.9566-2.436-2.107zm5.46-12.32c0.5169-0.5507 1.732-1.369 2.7-1.818 3.284-1.523 10.63-1.007 17.67 1.243 1.053 0.3364 2.03 0.54 2.172 0.4525 0.1415-0.0875 0.1231-0.5544-0.041-1.038-0.1641-0.4832-1.008-3.475-1.874-6.648s-1.671-6.017-1.788-6.32c-0.1894-0.4935 0.0849-0.5571 2.623-0.6081 1.559-0.0314 3.122-0.0239 3.474 0.0165 0.352 0.0405 2.08 0.1355 3.84 0.2112 1.76 0.0757 5.36 0.2621 8 0.4142 2.758 0.1589 5.038 0.1566 5.36-5e-3 0.4561-0.2297 0.56-0.7135 0.56-2.607 0-1.279 0.1318-2.462 0.2929-2.629s0.3411-0.664 0.4-1.104c0.0922-0.6889 0.2488-0.7864 1.127-0.7022 1.434 0.1375 3.222-0.4044 4.951-1.501 1.15-0.7295 1.709-1.403 2.504-3.017 0.9419-1.913 1.008-2.251 0.8318-4.269-0.1051-1.205-0.2658-4.423-0.3572-7.151-0.2145-6.405-0.2133-6.4-1.552-6.4-0.5886 0-1.836 0.1452-2.772 0.3228-0.936 0.1775-2.684 0.3844-3.884 0.4598l-2.182 0.137-2e-3 -1.98c-2e-3 -2.731-0.4796-4.202-1.86-5.732-2.387-2.648-4.533-2.982-10.99-1.711-3.599 0.708-9.325 1.636-14.65 2.375-1.138 0.1577-3.442 0.313-5.12 0.3452-1.678 0.0322-3.376 0.1383-3.772 0.2359-0.658 0.1621-0.72 0.065-0.72-1.128v-1.305l-15.84 0.1413 0.06474 1.402 0.06474 1.402-2.305-0.2079c-1.268-0.1143-3.961-0.3455-5.985-0.5138s-5.048-0.5142-6.72-0.7687c-8.061-1.227-9.877-1.538-11.36-1.944-5.807-1.591-10.1-2.516-10.38-2.235-0.4846 0.4846-0.4924 8.493-0.0086 8.792 0.3068 0.1896 0.2862 0.4008-0.09148 0.9401-0.2679 0.3825-0.4187 0.9573-0.3351 1.277 0.1338 0.5115-0.1116 0.5977-2.035 0.7147-2.65 0.1612-4.294 0.9022-6.088 2.744-2.721 2.794-3.561 7.709-2.011 11.76 0.9812 2.562 4.029 5.685 6.091 6.241 3.038 0.8194 2.861 0.5641 2.861 4.113 0 2.145 0.1291 3.274 0.4 3.497 0.2656 0.2186 1.899 0.2428 4.86 0.0718 3.73-0.2154 4.529-0.3515 4.88-0.8313 0.2307-0.3156 0.4195-0.6843 0.4195-0.8194s0.7049 0.1084 1.566 0.5412c2.305 1.158 4.638 0.9652 6.834-0.5639 0.8697-0.6057 0.8907-0.6052 1.794 0.0378 0.5025 0.3578 1.511 0.746 2.24 0.8627 0.7295 0.1166 1.326 0.3172 1.326 0.4457 0 0.1285-0.8725 3.366-1.939 7.194-1.066 3.828-1.873 7.026-1.793 7.106 0.08023 0.0802 1.349-0.2131 2.819-0.6518 5.119-1.528 7.623-1.947 11.47-1.92 4.339 0.0299 5.84 0.4794 7.88 2.359 1.313 1.21 1.494 1.278 3.413 1.278 1.858 0 2.106-0.0838 2.967-1.001zm-4.82-0.9186c-0.2503-0.405 0.1733-0.405 0.8 0 0.4137 0.2673 0.4052 0.3109-0.06112 0.3151-0.2976 3e-3 -0.6301-0.1391-0.7389-0.3151zm2.66 0.1014c0.231-0.0924 0.507-0.0811 0.6133 0.0253 0.1063 0.1063-0.08267 0.182-0.42 0.1681-0.3728-0.0154-0.4486-0.0912-0.1933-0.1933zm-24.39-2.581c0.1199-0.66 0.631-2.64 1.136-4.4 0.871-3.037 1.29-4.532 1.726-6.16 0.106-0.396 0.3439-0.72 0.5285-0.72s0.2586 0.252 0.1643 0.56c-0.3291 1.075-1.867 6.334-2.363 8.08-0.2748 0.968-0.507 2.228-0.5161 2.8-0.01044 0.6594-0.177 1.04-0.455 1.04-0.3322 0-0.3856-0.291-0.2205-1.2zm46.58 0.48c0.0431-0.8116-0.1447-1.583-1.799-7.391-0.644-2.261-1.094-4.188-1.001-4.281 0.0936-0.0936 0.3079 0.1724 0.4762 0.5911 0.3472 0.8638 3.241 11.19 3.239 11.56-7e-4 0.132-0.2157 0.24-0.4777 0.24-0.2921 0-0.4616-0.2786-0.4382-0.72zm-26.42-0.3839c-0.5118-0.4185-1.232-0.8382-1.6-0.9328-0.3682-0.0946-1.533-0.3919-2.589-0.6608l-1.92-0.4888 1.74 0.1721c1.794 0.1774 4.775 1.389 5.467 2.222 0.6025 0.726-0.05707 0.5386-1.097-0.3116zm24.45 0.1641c-1.091-0.5958-6.59-1.933-7.68-1.868-1.441 0.0861-2.88-0.113-2.88-0.3987 0-0.4003 3.628-0.1642 5.543 0.3607 3.165 0.8674 5.18 1.176 5.577 0.8529 0.301-0.245 0.4-0.1179 0.4 0.5137 0 0.879-0.1667 0.9727-0.96 0.5394zm-43.02-0.3008c-0.09616-0.1556 0.09753-1.128 0.4304-2.161 0.3329-1.033 1.134-3.572 1.779-5.642 0.6457-2.07 1.297-3.688 1.446-3.596 0.299 0.1848 0.2597 0.3402-1.377 5.44-0.6214 1.936-1.23 4.009-1.352 4.607-0.2109 1.03-0.1832 1.075 0.5332 0.8584 2.089-0.6309 3.128-0.8949 4.53-1.151 0.8439-0.1541 1.804-0.3656 2.133-0.4702 0.3293-0.1045 0.6817-0.0558 0.7831 0.1083s-0.2825 0.368-0.8531 0.4531c-1.904 0.2842-4.87 0.9281-5.517 1.198-1.14 0.4751-2.356 0.646-2.536 0.3561zm19.56-0.8484c-1.458-1.755-3.999-2.806-7.194-2.973-2.832-0.1487-6.481 0.3331-8.356 1.103-0.599 0.2461-1.165 0.3719-1.257 0.2794-0.09245-0.0924 0.0618-0.9223 0.3428-1.844 0.281-0.9219 0.8873-2.936 1.348-4.476l0.8367-2.8 4.299 0.033-1.12 0.432c-0.616 0.2376-1.408 0.5405-1.76 0.673-1.396 0.5257 0.4946 0.5117 2.612-0.0194 2.6-0.6522 5.264-0.4158 7.765 0.6891 0.9554 0.4221 1.888 0.7171 2.073 0.6554 0.5002-0.1667-1.088-1.116-3.048-1.82l-1.723-0.6197 1.28-0.01c0.704-5e-3 1.692 0.2055 2.197 0.4685 1.159 0.6043 1.681 0.6219 1.199 0.0405-0.2931-0.3531-0.1324-0.4749 0.8332-0.6316 0.658-0.1068 1.272-0.0899 1.364 0.0375 0.09219 0.1274 0.1253 2.86 0.07367 6.072-0.1027 6.384-0.1876 6.611-1.765 4.711zm-0.3805-3.35c-0.3339-0.5403-3.432-1.874-5.267-2.268-0.9975-0.2139-2.635-0.2889-3.837-0.1756-2.242 0.2112-5.195 1.179-5.391 1.766-0.1547 0.464-0.1594 0.4646 2.014-0.2832 2.516-0.8658 6.413-0.8621 9.233 9e-3 1.155 0.3568 2.187 0.7888 2.293 0.96 0.1058 0.1712 0.4084 0.3113 0.6724 0.3113s0.3912-0.1437 0.2826-0.3194zm-0.1157-1.707c-0.1945-0.2344-1.112-0.8464-2.039-1.36-1.512-0.8378-1.982-0.9339-4.566-0.9339-1.604 0-3.518 0.2019-4.32 0.4556-1.7 0.5381-2.569 1.185-1.12 0.8347 4.047-0.9792 7.696-0.7584 10.36 0.6265 1.689 0.8795 2.202 0.994 1.689 0.377zm0.08665-1.613c-0.09271-0.2416-0.9162-0.8536-1.83-1.36-1.485-0.823-1.967-0.9207-4.541-0.9207-2.811 0-5.92 0.6428-5.92 1.224 0 0.1564 0.2301 0.1961 0.5112 0.0882s1.518-0.3524 2.749-0.5434c2.744-0.4258 5.317-0.0385 7.514 1.131 1.803 0.9599 1.732 0.9421 1.517 0.3808zm3.706 4.039c-0.0013-2.068-0.09408-4.732-0.2063-5.92l-0.204-2.16h1.525c1.391 0 1.487 0.0474 1.086 0.5399-0.391 0.4807-0.369 0.511 0.2008 0.2768 1.911-0.7858 2.873-1.037 3.423-0.8931 0.4481 0.1172 0.1335 0.3547-1.173 0.8858-0.9821 0.3992-1.998 0.9019-2.257 1.117-0.7465 0.6195-0.5485 1.075 0.2482 0.5712 0.396-0.2506 1.44-0.732 2.32-1.07 1.876-0.72 6.317-0.8092 8.266-0.1661 1.422 0.4691 2.026 0.1957 0.6587-0.2982-2.227-0.8047-2.253-0.92-0.2156-0.9422 1.582-0.0172 2.049 0.0927 2.284 0.5384 0.3979 0.7534 2.663 8.45 2.527 8.587-0.0592 0.0592-1.037-0.1912-2.174-0.5564-2.929-0.9412-7.929-1.158-10.37-0.45-2.116 0.6151-4.078 1.81-4.813 2.932-0.9238 1.41-1.128 0.8688-1.131-2.992zm4.103-1.254c2.512-1.179 6.87-1.383 10.23-0.48 1.69 0.4542 2.235 0.5103 1.98 0.2039-0.7139-0.8602-3.904-1.591-6.872-1.573-2.523 0.0147-3.143 0.1389-4.997 1-1.164 0.5409-2.217 1.145-2.339 1.343-0.3264 0.5282-0.02149 0.4527 1.996-0.4942zm-0.2661-1.573c2.286-1.148 4.874-1.457 8.17-0.9757 2.862 0.4179 3.107 0.3463 1.189-0.3477-3.47-1.256-7.768-0.7532-10.46 1.223-1.565 1.15-1.08 1.195 1.097 0.1007zm5.286-2.801c1.787 0.0213 3.415 0.2318 4.29 0.5545 1.445 0.5331 1.962 0.5233 1.238-0.0234-0.9596-0.7248-3.473-1.223-6.168-1.223-2.629 0-3.032 0.0861-4.623 0.9886-2.511 1.424-2.375 1.903 0.1979 0.6952 1.981-0.9304 2.453-1.023 5.065-0.9916zm11.22 7.434c-0.4148-1.207-3.062-9.4-3.062-9.477 0-0.0487 0.1175-0.0886 0.2611-0.0886 0.1436 0 0.6679 1.332 1.165 2.96 0.4972 1.628 1.179 3.805 1.515 4.837 0.336 1.033 0.535 1.953 0.4424 2.046-0.0926 0.0926-0.2374-0.0322-0.3217-0.2774zm-32.89-0.3498c0.2987-0.2987 0.4693-0.2987 0.768 0 0.2987 0.2987 0.2133 0.384-0.384 0.384s-0.6827-0.0853-0.384-0.384zm20.06 0.064c0.1088-0.176 0.3968-0.32 0.64-0.32 0.2432 0 0.5312 0.144 0.64 0.32 0.1126 0.1822-0.163 0.32-0.64 0.32s-0.7526-0.1378-0.64-0.32zm-14.24-47.28c-0.0035-0.3812-1.448-4.497-2.499-7.12-2.193-5.472-3.289-13.39-3.546-25.6l-0.1921-9.12-0.96 0.09783c-1.343 0.1369-3.97 1.014-5.116 1.708-1.242 0.7517-1.352 1.74-1.07 9.561 0.2568 7.114 1.461 14.08 3.123 18.07 0.1466 0.352 0.5358 1.286 0.8649 2.075 1.92 4.605 6.72 10.56 8.509 10.56 0.4891 0 0.8882-0.108 0.887-0.24zm10.9-0.5733c0.3118-0.2822 0.7386-0.9706 0.9484-1.53 0.2098-0.5593 0.5024-1.305 0.6502-1.657 0.5139-1.224 1.826-5.447 2.038-6.56 0.1174-0.616 0.341-1.696 0.497-2.4 1.111-5.014 1.928-15.3 1.742-21.92-0.2099-7.488-0.1494-7.116-1.202-7.397-1.383-0.3702-7.4-0.7143-8.345-0.4772l-0.8327 0.209 0.01355 20.85c0.01015 15.62 0.109 20.97 0.3938 21.31 0.4925 0.5934 3.291 0.3012 4.096-0.4278zm3.954-0.5813c2.984-2.276 7.216-10.2 8.663-16.21 1.696-7.055 2.459-21.03 1.208-22.16-0.9148-0.8278-3.645-1.875-5.36-2.056l-1.6-0.1691-5e-3 7.957c-6e-3 9.392-0.513 14.47-2.216 22.21-0.6755 3.069-2.523 8.328-3.739 10.64-0.1657 0.3152-0.2224 0.7006-0.1261 0.8564 0.2589 0.4189 1.993-0.1621 3.175-1.064zm-9.486-19.85c0.06428-16.21-0.0052-20.87-0.3165-21.25-0.3319-0.3999-1.044-0.4475-4.242-0.2833-2.114 0.1085-4.15 0.285-4.524 0.3921-1.227 0.3509-1.438 1.504-1.432 7.798 0.01079 11.49 1.432 22.79 3.468 27.54 0.3389 0.792 1.028 2.634 1.531 4.093l0.9147 2.653 4.52-0.1856zm18.47 11.53c0.9002-2.482 2.895-5.542 6.618-10.15 5.357-6.636 6.903-10.01 7.211-15.72 0.2138-3.975-0.2542-5.753-1.873-7.115-1.874-1.576-5.5-0.851-7.482 1.497-1.548 1.834-2.599 4.734-1.716 4.734 0.1953 0 1.13-0.7083 2.077-1.574 0.9472-0.8657 2.184-1.675 2.748-1.799 0.8819-0.1937 1.146-0.08992 1.889 0.7414 1.185 1.327 1.417 3.047 0.7626 5.658-0.6526 2.602-3.137 7.668-5.979 12.19-3.789 6.033-5.876 10.98-5.475 12.99 0.2359 1.18 0.2889 1.117 1.219-1.448zm-32.6-33.54c1.725-1.631 1.778-1.655 2.781-1.245 1.707 0.699 3.39 1.127 3.602 0.9149 0.1101-0.1101-0.3297-1.165-0.9774-2.343l-1.178-2.143 1.387-1.472c0.7631-0.8093 1.53-1.577 1.705-1.707 0.2071-0.1536 0.1971-0.3555-0.02878-0.5814-0.2481-0.2481-0.9471-0.2225-2.469 0.09053-1.168 0.2401-2.247 0.3539-2.398 0.2528-0.1514-0.1011-0.7675-1.033-1.369-2.07-0.6016-1.037-1.237-1.901-1.413-1.92-0.1754-0.01864-0.4629 1.031-0.6389 2.333-0.3596 2.66-0.4257 2.728-3.12 3.246-2.031 0.3898-2.339 0.9063-0.96 1.607 0.484 0.2457 1.399 0.7627 2.034 1.149l1.154 0.702-0.1556 2.425c-0.08561 1.334-0.05609 2.425 0.06559 2.425 0.1217 0 1.013-0.7485 1.98-1.663zm31.64-0.5598c0-1.095-0.1698-2.073-0.4-2.304-0.6128-0.6143-0.507-0.7693 0.96-1.407 2-0.8694 3.221-1.773 2.871-2.123-0.1641-0.1641-1.204-0.4264-2.311-0.5829-1.107-0.1565-2.127-0.4005-2.268-0.5422-0.1404-0.1418-0.4036-1.183-0.5849-2.313-0.1813-1.13-0.4666-2.192-0.634-2.359-0.1925-0.1925-0.6566 0.3935-1.263 1.594-1.309 2.592-1.518 2.73-3.568 2.341-2.079-0.3942-2.883-0.4056-2.883-0.04099 0 0.1538 0.5844 0.9098 1.299 1.68 1.926 2.077 1.938 2.134 0.9046 4.258-1.225 2.518-1.234 3.081-0.0389 2.448 1.739-0.9211 3.347-1.626 3.71-1.626 0.2281 0 1.121 0.648 1.983 1.44s1.716 1.44 1.895 1.44c0.186-9e-5 0.327-0.8208 0.327-1.903zm-19.39-1.617c1.21-0.88 2.378-1.6 2.596-1.6 0.2181 0 1.462 0.726 2.764 1.613 1.302 0.8874 2.489 1.538 2.637 1.447 0.1483-0.09165-0.0576-1.166-0.4575-2.387-1.198-3.656-1.248-4.107-0.491-4.347 0.3616-0.1148 0.8383-0.3792 1.059-0.5877 0.221-0.2085 0.9419-0.7824 1.602-1.275 1.945-1.453 1.641-1.786-1.726-1.892-3.337-0.1049-3.136 0.05874-4.138-3.372-0.3728-1.276-0.855-2.32-1.072-2.32-0.2166 0-0.8227 1.26-1.347 2.8l-0.953 2.8-2.997 0.16c-1.763 0.09414-3.044 0.3052-3.113 0.5127-0.06402 0.194 0.8965 1.092 2.135 1.995 1.238 0.9033 2.251 1.847 2.251 2.097s-0.359 1.512-0.7978 2.805c-1.284 3.784-1.156 3.881 2.047 1.551z" fill="#790000"/>
</svg>